<svg width="40" height="40" viewBox="0 0 40 40" xmlns="http://www.w3.org/2000/svg" xmlns:xlink="http://www.w3.org/1999/xlink"><defs><path id="a" d="M0 0h40v40H0z"/></defs><g fill="none" fill-rule="evenodd"><mask id="b" fill="#fff"><use xlink:href="#a"/></mask><use fill="#DBDFE5" xlink:href="#a"/><path d="M23.392 24.086c0-1.54 1.235-1.038 1.777-3.86.222-1.17 1.313-.018 1.522-2.69 0-1.066-.596-1.33-.596-1.33s.303-1.577.422-2.79C26.665 11.906 25.613 8 20 8s-6.667 3.905-6.52 5.416c.12 1.213.422 2.79.422 2.79s-.596.264-.596 1.33c.21 2.672 1.3 1.52 1.525 2.69.545 2.822 1.78 2.32 1.78 3.86 0 2.567-1.292 3.766-5.337 5.187-4.057 1.426-6.693 2.88-6.693 3.87l-2 7.33s9.71 2.194 17.42 2.194 17.423-2.193 17.423-2.193l-2-7.33c0-.992-2.636-2.445-6.693-3.87-4.045-1.422-5.338-2.62-5.338-5.188z" fill="#475262" mask="url(#b)"/></g></svg>