<svg xmlns="http://www.w3.org/2000/svg" id="logo-md" xmlns:xlink="http://www.w3.org/1999/xlink" viewBox="0 0 179.3 57.8">
  <style>
    .st0{stroke:#000000;stroke-width:0.8695;stroke-miterlimit:3.8637;} .st1{fill:#C20E1A;} .st2{fill:#FFED00;} .st3{fill-rule:evenodd;clip-rule:evenodd;fill:#FFED00;} .st4{fill-rule:evenodd;clip-rule:evenodd;fill:#FFFFFF;} .st5{fill:#FFFFFF;}
  </style>
  <symbol id="logo-md_1_" viewBox="-134.7 -43.4 269.5 86.9">
    <path id="XMLID_95_" d="M-104.8 43h226.4l-16.7-86h-226.4l16.7 86z" class="st0"/>
    <path id="XMLID_94_" d="M121.3 43.4h13.4l-17-86.8h-13.5l17.1 86.6z" class="st1"/>
    <path id="XMLID_93_" d="M-118.1 43.4h13.4l-16.6-86.8h-13.4l16.6 86.6z" class="st1"/>
    <path id="XMLID_92_" d="M-105.7-2.5h11.5l4.6 23.6c.4 2.2.5 2.8.8 5.2.1-4 .2-4.1.4-7.2l1.7-21.6h9l10.8 22.8c1.3 2.8 1.5 3.3 2.7 6.2-.9-3.3-1-4-1.6-6.8l-4.3-22.2h11.6l7.5 38.4h-17.4L-76 19.4c-1.6-3.7-2-4.7-3.6-9.4.1 3.5.1 4.3 0 8.1l-1.3 17.7h-17.3l-7.5-38.3z" class="st2"/>
    <path id="XMLID_91_" d="M-51.9 13.1c-.7-4-1.5-8.3 1.6-12 2.3-2.7 6.8-4.6 12.5-4.6 5.9 0 10.8 2 14 4.6 5.3 4.3 6.5 10 7.3 14.4l4 20.4h-12.2l-4.7-24c-.3-1.6-.7-3.3-2.4-4.7-.8-.7-2.2-1.4-4.1-1.4-1.4 0-2.8.4-3.6 1.4-1.1 1.3-.8 3-.5 4.6l4.7 24h-12.2l-4.4-22.7z" class="st2"/>
    <path id="XMLID_90_" d="M-16.2-2.5h11.3l3 15.5c.6 3.5.7 4.3 1.1 7.8 1.5-5.1 1.9-6.3 3.4-10.1L7.8-2.5h13l7.5 38.4H16.9l-2.9-15c-.7-4.3-.8-5.1-1.2-8.9-1.1 4.3-1.5 5.4-2.8 9.4L4.1 35.9H-8.7l-7.5-38.4z" class="st2"/>
    <path id="XMLID_87_" d="M24.3-2.5h16c3.7 0 7.2 0 10.5 1C59 1.1 63.5 8.8 65.1 16.9c1.1 5.4.8 10.9-2.5 14.6-3.7 4.2-9.2 4.3-17.8 4.4h-13L24.3-2.5zm22.5 29.4c2.4-.1 5.4-.2 6.2-4.6.3-1.6.3-3.4-.1-5.6-.7-3.6-2.4-6.8-4.5-8.6-2-1.6-3.7-1.7-5.5-1.8h-4.6l4 20.6h4.5z" class="st3"/>
    <path id="XMLID_84_" d="M92.4 37.3c-13.9 0-22.5-9.7-24.7-20.6-1.7-8.8.8-20.4 16.5-20.4 15 0 22.9 11.1 24.8 20.8 1.8 9.1-1.5 20.2-16.6 20.2zm-1.9-9.7c1.1 0 5.7-.2 6.5-5.5.2-1.5.1-3.2-.3-5.1-1.3-7.1-5.5-11-10.4-11-5.8 0-7.7 4-6.4 10.7 1.5 8 6.3 10.9 10.6 10.9z" class="st3"/>
    <path id="XMLID_81_" d="M-110.5-25.8h8c1.9 0 3.6 0 5.3.5 4.1 1.3 6.4 5.1 7.2 9.2.5 2.7.4 5.5-1.3 7.4-1.9 2.1-4.6 2.2-9 2.2h-6.6l-3.6-19.3zM-99.2-11c1.2-.1 2.7-.1 3.1-2.3.1-.8.2-1.7-.1-2.8-.4-1.8-1.2-3.4-2.3-4.3-1-.8-1.9-.8-2.7-.9h-2.3l2 10.4h2.3v-.1z" class="st4"/>
    <path id="XMLID_80_" d="M-89.6-25.8h16.2l.8 4.2h-10l.7 3.8h8.6l.8 4.2h-8.6l.6 2.9h9.2l.8 4.2h-15.3l-3.8-19.3z" class="st5"/>
    <path id="XMLID_77_" d="M-71.6-25.8h6.1l1.2 6.3h4.7c2.1.1 3.9.1 5.9 1.8 1.8 1.6 2.5 3.3 2.8 4.9.2 1.2.4 3-.7 4.5-1.2 1.6-3.1 1.7-5.1 1.8h-11.1l-3.8-19.3zm12.5 15.3c.8-.1 2.5-.2 2.1-2.4-.2-1.2-.9-2.1-1.9-2.4-.3-.1-.7-.1-1-.1h-3.5l1 4.9h3.3z" class="st4"/>
    <path id="XMLID_74_" d="M-37.7-5.8c-7 0-11.3-4.9-12.4-10.4-.9-4.4.4-10.3 8.3-10.3 7.6 0 11.5 5.6 12.5 10.5.8 4.7-.8 10.2-8.4 10.2zm-1-4.8c.5 0 2.9-.1 3.3-2.8.1-.8 0-1.6-.1-2.5-.7-3.6-2.8-5.6-5.3-5.6-2.9 0-3.9 2-3.2 5.4.8 4 3.1 5.5 5.3 5.5z" class="st4"/>
    <path id="XMLID_71_" d="M-29.6-25.8h6.1l1.3 6.8h1.8l2.4-6.8h6.8l-3.2 7.8c1 .4 1.9.7 2.8 1.5 1.7 1.4 2.1 3.1 2.2 3.9.4 1.9.1 4.5-2.3 5.6-1.1.5-2.8.6-4.6.6h-9.6l-3.7-19.4zM-18-10.5c1.1 0 3-.1 2.5-2.3-.4-2.2-2.4-2.2-3.4-2.2h-2.5l.9 4.5h2.5z" class="st4"/>
    <path id="XMLID_70_" d="M-7.6-11.2h4.9l-2.9-14.6H.5l2.9 14.6h4.9l.9 4.7H-6.7l-.9-4.7z" class="st5"/>
    <path id="XMLID_69_" d="M7.7-25.8h6.1l3.8 19.3h-6.1L7.7-25.8z" class="st5"/>
    <path id="XMLID_68_" d="M22.2-25.8h6.4L38.9-6.5h-6.3l-4-8.3c-.9-2-1.1-2.4-1.9-4.5.1 2.1.1 2.7-.1 5.1l-.8 7.7h-6.2l2.6-19.3z" class="st5"/>
    <path id="XMLID_48_" d="M49.2-5.8c-7 0-11.3-4.9-12.4-10.4-.9-4.4.4-10.3 8.3-10.3 7.6 0 11.5 5.6 12.5 10.5.8 4.7-.8 10.2-8.4 10.2zm-1-4.8c.5 0 2.9-.1 3.3-2.8.1-.8 0-1.6-.1-2.5-.7-3.6-2.8-5.6-5.3-5.6-2.9 0-3.9 2-3.2 5.4.7 4 3.1 5.5 5.3 5.5z" class="st4"/>
  </symbol>
  <use id="md" width="269.5" height="86.9" x="-134.7" y="-43.4" xlink:href="#logo-md_1_" transform="matrix(.6655 0 0 -.6655 89.668 28.882)" overflow="visible"/>
</svg>
